# xmcd
#
# Track frame offsets:
#	150
#	19638
#	43378
#	66403
#	97092
#	119392
#	133805
#	158080
#	173634
#	189891
#	215391
#	256853
#	276445
#	293508
#	317821
#	339101
#
# Disc length: 4808 seconds
#
# Revision: 2
# Processed by: cddbd v1.5.2PL0 Copyright (c) Steve Scherf et al.
# Submitted via: EasyCDDAExtractor 8.2.3.1
#
DISCID=e912c610
DTITLE=Michael KATON - Boogie Is My Business CD-3
DYEAR=2006
DGENRE=Blues
TTITLE0=Rip it Hard!
TTITLE1=Red Moon Risin'
TTITLE2=Buncha Loud Boogie
TTITLE3=Need It Awful Bad (Tribute To JM And RT)
TTITLE4=Where the Wild Ones Go
TTITLE5=Big Twin
TTITLE6=Barbeque on My Boogie
TTITLE7=Rock'n'Run
TTITLE8=Runaway Train
TTITLE9=The Water Won't Boil
TTITLE10=Big Bad Booty
TTITLE11=Wound Up
TTITLE12=I'm Just Along for the Ride
TTITLE13=Every Girl I See
TTITLE14=Junior Keep On Walkin'
TTITLE15=Boogie Is My Business
EXTD=
EXTT0=
EXTT1=
EXTT2=
EXTT3=
EXTT4=
EXTT5=
EXTT6=
EXTT7=
EXTT8=
EXTT9=
EXTT10=
EXTT11=
EXTT12=
EXTT13=
EXTT14=
EXTT15=
PLAYORDER=
